# xmcd
#
# Track frame offsets: 
#        150
#        16477
#        31485
#
# Disc length: 587 seconds
#
# Revision: 1
# Processed by: cddbd v1.5.2PL0 Copyright (c) Steve Scherf et al.
# Submitted via: ExactAudioCopy v1.3
#
DISCID=1c024903
DTITLE=三浦大知 - (RE)PLAY - Single
DYEAR=2016
DGENRE=VISION FACTORY
TTITLE0=(RE)PLAY
TTITLE1=Look what you did
TTITLE2=Daydream
EXTD=YEAR: 2016
EXTT0=
EXTT1=
EXTT2=
PLAYORDER=
